<svg height="24" viewBox="0 0 24 24" width="24" xmlns="http://www.w3.org/2000/svg"><path d="m7.29289322 18 11.49999998-11.5-2.2928932-2.29289322-11.5 11.50000002v2.2928932zm-3.29289322.5v-3c0-.1326082.05267842-.2597852.14644661-.3535534l11.99999999-11.99999999c.1952622-.19526215.5118446-.19526215.7071068 0l3 3c.1952621.19526215.1952621.51184463 0 .70710678l-12.00000001 12.00000001c-.09376819.0937682-.22094515.1464466-.35355339.1464466h-3c-.27614237 0-.5-.2238576-.5-.5zm.5 2.5c-.27614237 0-.5-.2238576-.5-.5s.22385763-.5.5-.5h10.0069431c.2761424 0 .5.2238576.5.5s-.2238576.5-.5.5z"/></svg>